<svg xmlns="http://www.w3.org/2000/svg" viewBox="0 0 1100 620" width="100%" role="img" aria-label="Схема интерфейса" style="display: block; height: auto; font-family: 'Geologica', sans-serif"><rect x="0" y="0" width="1100" height="620" rx="0" fill="#ffffff"></rect><rect x="40.0" y="35.9" width="91.0" height="13.0" rx="6.5" fill="#b9bfc9"></rect><rect x="40.0" y="102.7" width="22.5" height="7.5" rx="3.8" fill="#e1e5ea"></rect><rect x="260" y="88" width="300" height="44" rx="8" fill="#fff" stroke="#d9d9d9" stroke-width="1.5"></rect><rect x="276.0" y="106.1" width="96.0" height="8.0" rx="4.0" fill="#cfd4dc"></rect><path d="M530 108 L536 114 L542 108" fill="none" stroke="#1c1c1c" stroke-width="2" stroke-linecap="round" stroke-linejoin="round"></path><rect x="40.0" y="174.7" width="45.0" height="7.5" rx="3.8" fill="#e1e5ea"></rect><rect x="260" y="160" width="440" height="44" rx="8" fill="#fff" stroke="#d9d9d9" stroke-width="1.5"></rect><rect x="276.0" y="178.7" width="105.0" height="7.5" rx="3.8" fill="#e1e5ea"></rect><rect x="260.0" y="229.3" width="63.0" height="7.0" rx="3.5" fill="#cfd4dc"></rect><rect x="346" y="222" width="24" height="24" rx="6" fill="#e3e7ee"></rect><rect x="353" y="229" width="10" height="10" rx="2" fill="#7b8494"></rect><rect x="386" y="222" width="24" height="24" rx="6" fill="#e3e7ee"></rect><rect x="393" y="229" width="10" height="10" rx="2" fill="#7b8494"></rect><rect x="426" y="222" width="24" height="24" rx="6" fill="#e3e7ee"></rect><rect x="433" y="229" width="10" height="10" rx="2" fill="#7b8494"></rect><rect x="466" y="222" width="24" height="24" rx="6" fill="#e3e7ee"></rect><rect x="473" y="229" width="10" height="10" rx="2" fill="#7b8494"></rect><rect x="506" y="222" width="24" height="24" rx="6" fill="#e3e7ee"></rect><rect x="513" y="229" width="10" height="10" rx="2" fill="#7b8494"></rect><rect x="40.0" y="280.7" width="37.5" height="7.5" rx="3.8" fill="#e1e5ea"></rect><rect x="260" y="268" width="400" height="42" rx="8" fill="#fff" stroke="#d9d9d9" stroke-width="1.5"></rect><rect x="276.0" y="285.7" width="120.0" height="7.5" rx="3.8" fill="#e1e5ea"></rect><rect x="260" y="326" width="400" height="42" rx="8" fill="#fff" stroke="#d9d9d9" stroke-width="1.5"></rect><rect x="276.0" y="343.7" width="187.5" height="7.5" rx="3.8" fill="#e1e5ea"></rect><circle cx="682" cy="347" r="2" fill="#727272"></circle><circle cx="690" cy="347" r="2" fill="#727272"></circle><circle cx="698" cy="347" r="2" fill="#727272"></circle><rect x="260.0" y="387.9" width="104.0" height="6.5" rx="3.2" fill="#006ee5"></rect><rect x="260" y="414" width="18" height="18" rx="4" fill="#fff" stroke="#d9d9d9" stroke-width="1.5"></rect><rect x="288.0" y="418.7" width="127.5" height="7.5" rx="3.8" fill="#cfd4dc"></rect><rect x="260" y="456" width="18" height="18" rx="4" fill="#fff" stroke="#d9d9d9" stroke-width="1.5"></rect><rect x="288.0" y="461.7" width="67.5" height="7.5" rx="3.8" fill="#cfd4dc"></rect><rect x="40.0" y="506.7" width="67.5" height="7.5" rx="3.8" fill="#e1e5ea"></rect><rect x="260" y="492" width="300" height="44" rx="8" fill="#fff" stroke="#d9d9d9" stroke-width="1.5"></rect><rect x="276.0" y="510.1" width="120.0" height="8.0" rx="4.0" fill="#cfd4dc"></rect><path d="M530 512 L536 518 L542 512" fill="none" stroke="#1c1c1c" stroke-width="2" stroke-linecap="round" stroke-linejoin="round"></path><rect x="0" y="556" width="1100" height="64" rx="0" fill="#f1f3f6"></rect><rect x="24" y="566" width="110" height="44" rx="8" fill="#fff" stroke="#d9d9d9" stroke-width="1.5"></rect><rect x="58.0" y="584.3" width="42.0" height="7.0" rx="3.5" fill="#cfd4dc"></rect><rect x="720" y="566" width="196" height="44" rx="8" fill="#fff" stroke="#d9d9d9" stroke-width="1.5"></rect><rect x="755.0" y="584.3" width="126.0" height="7.0" rx="3.5" fill="#cfd4dc"></rect><rect x="930" y="566" width="150" height="44" rx="8" fill="#006ee5"></rect><rect x="936.8" y="584.9" width="136.5" height="6.5" rx="3.2" fill="#ffffff"></rect></svg>